<?xml version="1.0" encoding="UTF-8"?>
<svg version="1.1" xmlns="http://www.w3.org/2000/svg" width="405" height="100">
<path d="M0 0 C133.65 0 267.3 0 405 0 C405 33 405 66 405 100 C271.35 100 137.7 100 0 100 C0 67 0 34 0 0 Z " fill="#FCFDFD" transform="translate(0,0)"/>
<path d="M0 0 C5.92555903 4.18739505 9.30896607 9.19164171 12.59375 15.59375 C12.9340625 14.94148438 13.274375 14.28921875 13.625 13.6171875 C17.99562189 5.7361193 23.22293076 0.07071483 31.96484375 -2.94921875 C38.40299376 -4.06848108 45.08664186 -3.60589991 51.59375 -3.40625 C51.59375 0.55375 51.59375 4.51375 51.59375 8.59375 C50.19962891 8.63242187 50.19962891 8.63242187 48.77734375 8.671875 C38.93113095 8.99339511 38.93113095 8.99339511 30.59375 13.59375 C26.67836032 18.51308576 25.89487587 22.61249157 26.14453125 28.87109375 C26.85202059 33.15909436 28.49261344 36.53588511 31.59375 39.59375 C36.23190131 42.3860627 39.58797689 42.93353603 44.96875 42.78125 C46.83660156 42.74064453 46.83660156 42.74064453 48.7421875 42.69921875 C50.15371094 42.64701172 50.15371094 42.64701172 51.59375 42.59375 C52.2439209 40.815448 52.2439209 40.815448 52.90722656 39.0012207 C54.52283414 34.5901161 56.15090355 30.18369771 57.78271484 25.77856445 C58.48630308 23.87388989 59.18653718 21.96797273 59.88330078 20.06079102 C60.88728805 17.3145063 61.90338213 14.57296424 62.921875 11.83203125 C63.22933655 10.98288651 63.5367981 10.13374176 63.85357666 9.25886536 C65.7916877 4.08780423 67.79251716 -0.30532537 72.34375 -3.71875 C77.02116245 -5.14795936 81.16146041 -4.79942753 85.78125 -3.53125 C94.41281739 2.99037869 97.33242282 18.34521774 100.90625 28.21875 C101.55740016 30.00410422 102.20908848 31.78926226 102.86132812 33.57421875 C104.4450174 37.91182498 106.02139421 42.25202329 107.59375 46.59375 C107.92375 45.60375 108.25375 44.61375 108.59375 43.59375 C109.43147949 43.57393066 110.26920898 43.55411133 111.13232422 43.53369141 C114.23740834 43.45564388 117.34209539 43.36895365 120.44677734 43.27636719 C122.45261971 43.21920964 124.45873918 43.17206404 126.46484375 43.125 C128.35009766 43.06699219 128.35009766 43.06699219 130.2734375 43.0078125 C132.01729736 42.96068115 132.01729736 42.96068115 133.79638672 42.91259766 C136.73031482 42.87217131 136.73031482 42.87217131 138.59375 40.59375 C139.01041667 37.59375 139.01041667 37.59375 138.59375 34.59375 C134.82521402 32.08139268 131.7669463 32.34977922 127.40625 32.28125 C120.70828863 32.03695816 115.6175157 31.44673613 110.59375 26.59375 C106.43401816 22.03146346 106.18293641 17.41459163 106.25390625 11.453125 C106.78116597 7.0168708 108.41769517 3.72792278 111.59375 0.59375 C116.74351588 -2.83608081 119.94832901 -3.89854592 126.27734375 -3.796875 C126.97771255 -3.79121521 127.67808136 -3.78555542 128.39967346 -3.77972412 C130.61092945 -3.7575422 132.82049373 -3.70738806 135.03125 -3.65625 C136.54099203 -3.63616115 138.05075975 -3.61791458 139.56054688 -3.6015625 C143.23881999 -3.55773947 146.91611956 -3.48884341 150.59375 -3.40625 C150.59375 0.55375 150.59375 4.51375 150.59375 8.59375 C149.32930054 8.63133423 149.32930054 8.63133423 148.03930664 8.66967773 C144.92133326 8.76463155 141.80353497 8.86387448 138.68579102 8.96606445 C137.33460853 9.00946223 135.98336947 9.0511337 134.63208008 9.09106445 C132.69338299 9.14864952 130.75488724 9.21289298 128.81640625 9.27734375 C127.64859619 9.31400146 126.48078613 9.35065918 125.27758789 9.38842773 C122.67595205 9.29451188 122.67595205 9.29451188 121.59375 10.59375 C121.34369614 13.55192107 121.34369614 13.55192107 121.59375 16.59375 C124.62588056 19.62588056 128.15199355 18.84595679 132.21875 18.90625 C139.09432177 19.15320766 144.51667314 19.47459792 149.59375 24.59375 C150.41875 25.41875 151.24375 26.24375 152.09375 27.09375 C154.42741674 32.53897239 154.32261126 37.76285993 153.59375 43.59375 C151.3082307 48.51640695 147.87680294 51.40424249 143.59375 54.59375 C140.73887885 55.54537372 138.98920683 55.71538139 136.03051758 55.70727539 C135.10978958 55.70719986 134.18906158 55.70712433 133.24043274 55.70704651 C132.24972275 55.70188522 131.25901276 55.69672394 130.23828125 55.69140625 C129.22150803 55.6899913 128.2047348 55.68857635 127.15715027 55.68711853 C123.90682036 55.68151707 120.65655912 55.66896432 117.40625 55.65625 C115.20377704 55.65123519 113.00130299 55.64667225 110.79882812 55.64257812 C105.39710893 55.63154716 99.99544111 55.61428154 94.59375 55.59375 C93.60375 51.96375 92.61375 48.33375 91.59375 44.59375 C83.01375 44.59375 74.43375 44.59375 65.59375 44.59375 C65.26375 46.57375 64.93375 48.55375 64.59375 50.59375 C63.97149395 52.27750165 63.31830635 53.95142228 62.59375 55.59375 C58.13564248 55.71109237 53.67793872 55.78138372 49.21875 55.84375 C47.96707031 55.87726563 46.71539062 55.91078125 45.42578125 55.9453125 C35.24638272 56.05190306 26.79842713 54.45288958 19.1328125 47.38671875 C16.34650758 44.14074423 14.44389342 40.43045294 12.59375 36.59375 C12.14644531 37.34140625 11.69914062 38.0890625 11.23828125 38.859375 C10.63371094 39.84421875 10.02914062 40.8290625 9.40625 41.84375 C8.81457031 42.81828125 8.22289062 43.7928125 7.61328125 44.796875 C3.33390927 50.72343271 -2.84127201 54.66313222 -9.9765625 56.23828125 C-20.0221474 57.70797293 -28.92758904 57.02914096 -37.4375 51.203125 C-43.52872764 46.29917055 -46.65788134 40.78400277 -48.65625 33.21875 C-48.99140625 31.97351562 -49.3265625 30.72828125 -49.671875 29.4453125 C-49.91421875 28.50429688 -50.1565625 27.56328125 -50.40625 26.59375 C-50.81617188 27.0990625 -51.22609375 27.604375 -51.6484375 28.125 C-52.18726563 28.7746875 -52.72609375 29.424375 -53.28125 30.09375 C-53.81492188 30.7434375 -54.34859375 31.393125 -54.8984375 32.0625 C-55.39601562 32.5678125 -55.89359375 33.073125 -56.40625 33.59375 C-57.06625 33.59375 -57.72625 33.59375 -58.40625 33.59375 C-56.99860109 36.80474637 -55.53681077 39.7987074 -53.40625 42.59375 C-49.74140719 43.8118273 -49.74140719 43.8118273 -46.40625 43.59375 C-46.40625 47.55375 -46.40625 51.51375 -46.40625 55.59375 C-57.27239173 56.07668963 -57.27239173 56.07668963 -61.78125 54.15625 C-65.76883739 50.26360517 -69.29079254 45.63204364 -71.2265625 40.359375 C-72.30906863 38.30417892 -72.30906863 38.30417892 -75.0078125 37.984375 C-76.00554687 37.93796875 -77.00328125 37.8915625 -78.03125 37.84375 C-79.805 37.76125 -81.57875 37.67875 -83.40625 37.59375 C-83.40625 43.53375 -83.40625 49.47375 -83.40625 55.59375 C-88.02625 55.59375 -92.64625 55.59375 -97.40625 55.59375 C-97.40625 36.12375 -97.40625 16.65375 -97.40625 -3.40625 C-89.98125 -3.4990625 -89.98125 -3.4990625 -82.40625 -3.59375 C-80.86066406 -3.62106201 -79.31507812 -3.64837402 -77.72265625 -3.67651367 C-67.93603201 -3.73570696 -60.4808376 -3.01019457 -52.94921875 3.83203125 C-50.35928066 6.78915043 -48.95691701 9.99620254 -47.40625 13.59375 C-47.0659375 13.01367188 -46.725625 12.43359375 -46.375 11.8359375 C-41.77063235 4.41506837 -36.1792189 -1.14891449 -27.73046875 -3.9375 C-18.25256553 -5.84900989 -8.38367961 -4.89955302 0 0 Z " fill="#0596B0" transform="translate(190.40625,26.40625)"/>
<path d="M0 0 C8.63156739 6.52162869 11.55117282 21.87646774 15.125 31.75 C15.77615016 33.53535422 16.42783848 35.32051226 17.08007812 37.10546875 C18.6637674 41.44307498 20.24014421 45.78327329 21.8125 50.125 C22.1425 49.135 22.4725 48.145 22.8125 47.125 C23.65022949 47.10518066 24.48795898 47.08536133 25.35107422 47.06494141 C28.45615834 46.98689388 31.56084539 46.90020365 34.66552734 46.80761719 C36.67136971 46.75045964 38.67748918 46.70331404 40.68359375 46.65625 C42.56884766 46.59824219 42.56884766 46.59824219 44.4921875 46.5390625 C46.23604736 46.49193115 46.23604736 46.49193115 48.01513672 46.44384766 C50.94906482 46.40342131 50.94906482 46.40342131 52.8125 44.125 C53.22916667 41.125 53.22916667 41.125 52.8125 38.125 C49.04396402 35.61264268 45.9856963 35.88102922 41.625 35.8125 C34.92703863 35.56820816 29.8362657 34.97798613 24.8125 30.125 C20.65276816 25.56271346 20.40168641 20.94584163 20.47265625 14.984375 C20.99991597 10.5481208 22.63644517 7.25917278 25.8125 4.125 C30.96226588 0.69516919 34.16707901 -0.36729592 40.49609375 -0.265625 C41.54664696 -0.25713531 41.54664696 -0.25713531 42.61842346 -0.24847412 C44.82967945 -0.2262922 47.03924373 -0.17613806 49.25 -0.125 C50.75974203 -0.10491115 52.26950975 -0.08666458 53.77929688 -0.0703125 C57.45756999 -0.02648947 61.13486956 0.04240659 64.8125 0.125 C64.8125 4.085 64.8125 8.045 64.8125 12.125 C63.54805054 12.16258423 63.54805054 12.16258423 62.25805664 12.20092773 C59.14008326 12.29588155 56.02228497 12.39512448 52.90454102 12.49731445 C51.55335853 12.54071223 50.20211947 12.5823837 48.85083008 12.62231445 C46.91213299 12.67989952 44.97363724 12.74414298 43.03515625 12.80859375 C41.86734619 12.84525146 40.69953613 12.88190918 39.49633789 12.91967773 C36.89470205 12.82576188 36.89470205 12.82576188 35.8125 14.125 C35.56244614 17.08317107 35.56244614 17.08317107 35.8125 20.125 C38.84463056 23.15713056 42.37074355 22.37720679 46.4375 22.4375 C53.31307177 22.68445766 58.73542314 23.00584792 63.8125 28.125 C64.6375 28.95 65.4625 29.775 66.3125 30.625 C68.64616674 36.07022239 68.54136126 41.29410993 67.8125 47.125 C65.5269807 52.04765695 62.09555294 54.93549249 57.8125 58.125 C54.95762885 59.07662372 53.20795683 59.24663139 50.24926758 59.23852539 C49.32853958 59.23844986 48.40781158 59.23837433 47.45918274 59.23829651 C46.46847275 59.23313522 45.47776276 59.22797394 44.45703125 59.22265625 C43.44025803 59.2212413 42.4234848 59.21982635 41.37590027 59.21836853 C38.12557036 59.21276707 34.87530912 59.20021432 31.625 59.1875 C29.42252704 59.18248519 27.22005299 59.17792225 25.01757812 59.17382812 C19.61585893 59.16279716 14.21419111 59.14553154 8.8125 59.125 C7.8225 55.495 6.8325 51.865 5.8125 48.125 C-2.7675 48.125 -11.3475 48.125 -20.1875 48.125 C-20.5175 50.105 -20.8475 52.085 -21.1875 54.125 C-21.80975605 55.80875165 -22.46294365 57.48267228 -23.1875 59.125 C-27.64560752 59.24234237 -32.10331128 59.31263372 -36.5625 59.375 C-37.81417969 59.40851563 -39.06585938 59.44203125 -40.35546875 59.4765625 C-50.24921259 59.58016191 -59.17067946 58.11786232 -66.58203125 51.05859375 C-72.91131985 43.43572792 -75.20366644 35.66016929 -74.76953125 25.81640625 C-73.50163576 17.77505565 -69.8127618 10.19174997 -63.1328125 5.3046875 C-53.61861144 -0.46496857 -45.00701102 -0.32685893 -34.1875 0.125 C-34.1875 4.085 -34.1875 8.045 -34.1875 12.125 C-35.58162109 12.16367187 -35.58162109 12.16367187 -37.00390625 12.203125 C-46.85011905 12.52464511 -46.85011905 12.52464511 -55.1875 17.125 C-59.10288968 22.04433576 -59.88637413 26.14374157 -59.63671875 32.40234375 C-58.92922941 36.69034436 -57.28863656 40.06713511 -54.1875 43.125 C-49.54934869 45.9173127 -46.19327311 46.46478603 -40.8125 46.3125 C-38.94464844 46.27189453 -38.94464844 46.27189453 -37.0390625 46.23046875 C-35.62753906 46.17826172 -35.62753906 46.17826172 -34.1875 46.125 C-33.75405273 44.93946533 -33.32060547 43.75393066 -32.87402344 42.5324707 C-31.25841586 38.1213661 -29.63034645 33.71494771 -27.99853516 29.30981445 C-27.29494692 27.40513989 -26.59471282 25.49922273 -25.89794922 23.59204102 C-24.89396195 20.8457563 -23.87786787 18.10421424 -22.859375 15.36328125 C-22.55191345 14.51413651 -22.2444519 13.66499176 -21.92767334 12.79011536 C-19.9895623 7.61905423 -17.98873284 3.22592463 -13.4375 -0.1875 C-8.76008755 -1.61670936 -4.61978959 -1.26817753 0 0 Z " fill="#252626" transform="translate(276.1875,22.875)"/>
<path d="M0 0 C4.73222455 -0.07445407 9.46410411 -0.1287447 14.19677734 -0.16479492 C15.80491072 -0.17983176 17.41300344 -0.20026672 19.02099609 -0.22631836 C21.33962064 -0.26292822 23.65770049 -0.27977722 25.9765625 -0.29296875 C27.04567368 -0.31619453 27.04567368 -0.31619453 28.13638306 -0.33988953 C32.84270027 -0.34145721 36.02589874 0.47632474 40 3 C42.375 6.1875 42.375 6.1875 44 9 C44.680625 8.2575 45.36125 7.515 46.0625 6.75 C52.78285382 0.25028707 58.0797672 -0.48870932 67.27929688 -0.3515625 C68.66537533 -0.31815118 70.05144304 -0.28429152 71.4375 -0.25 C72.85088621 -0.2299083 74.26429993 -0.21166223 75.67773438 -0.1953125 C79.11906683 -0.15151817 82.55935575 -0.08263903 86 0 C86 3.96 86 7.92 86 12 C84.14632812 12.04898438 82.29265625 12.09796875 80.3828125 12.1484375 C77.96352598 12.22345414 75.5442559 12.29900243 73.125 12.375 C71.29001953 12.42140625 71.29001953 12.42140625 69.41796875 12.46875 C68.25136719 12.50742187 67.08476563 12.54609375 65.8828125 12.5859375 C64.80402832 12.6173584 63.72524414 12.6487793 62.61376953 12.68115234 C59.84238346 12.74676322 59.84238346 12.74676322 58 15 C58.18757062 18.82564665 58.18757062 18.82564665 60 22 C61.70563778 22.15740605 63.41727244 22.25093392 65.12890625 22.31640625 C66.68061523 22.37924805 66.68061523 22.37924805 68.26367188 22.44335938 C69.35228516 22.48267578 70.44089844 22.52199219 71.5625 22.5625 C72.65498047 22.60568359 73.74746094 22.64886719 74.87304688 22.69335938 C77.58186768 22.79981958 80.29091651 22.90044807 83 23 C83 26.96 83 30.92 83 35 C80.67001953 35.05607422 80.67001953 35.05607422 78.29296875 35.11328125 C76.257788 35.17893224 74.22263283 35.24537988 72.1875 35.3125 C71.16333984 35.33505859 70.13917969 35.35761719 69.08398438 35.38085938 C68.10107422 35.41630859 67.11816406 35.45175781 66.10546875 35.48828125 C65.19949951 35.51446533 64.29353027 35.54064941 63.36010742 35.56762695 C60.57913782 36.0771022 59.61669347 36.70003495 58 39 C58.07542341 42.11993606 58.07542341 42.11993606 59 45 C61.62723396 46.31361698 63.72610561 46.21253909 66.6640625 46.31640625 C68.34628906 46.37924805 68.34628906 46.37924805 70.0625 46.44335938 C71.238125 46.48267578 72.41375 46.52199219 73.625 46.5625 C74.80835937 46.60568359 75.99171875 46.64886719 77.2109375 46.69335938 C80.14047907 46.79967338 83.07022377 46.90036217 86 47 C86 50.96 86 54.92 86 59 C81.87426194 59.12461569 77.74926869 59.21480904 73.62207031 59.2746582 C72.22148531 59.29963412 70.82102839 59.33362817 69.42089844 59.37719727 C54.24666092 59.83718663 54.24666092 59.83718663 48 54 C46 51.6875 46 51.6875 45 50 C44.67 52.97 44.34 55.94 44 59 C38.98294279 59.07442006 33.96621028 59.12872908 28.94873047 59.16479492 C27.24359537 59.17983738 25.53849868 59.20027653 23.83349609 59.22631836 C21.37587988 59.26290284 18.91877731 59.27977173 16.4609375 59.29296875 C15.70444916 59.30845261 14.94796082 59.32393646 14.16854858 59.33988953 C9.37436206 59.3413977 6.1771238 58.59917805 2 56 C-1.34392927 52.32167781 -1.69603908 48.36387914 -1.5390625 43.5546875 C-0.54553491 38.84623064 2.53220246 36.14413644 6 33 C6.62519531 32.42765625 7.25039062 31.8553125 7.89453125 31.265625 C9.19064527 30.11469687 10.49972191 28.97822768 11.8203125 27.85546875 C14.31228691 25.73416437 16.75214286 23.56104016 19.1875 21.375 C19.98542969 20.66085938 20.78335937 19.94671875 21.60546875 19.2109375 C24.13494389 16.87540254 26.5655629 14.4344371 29 12 C19.43 12 9.86 12 0 12 C0 8.04 0 4.08 0 0 Z " fill="#0C95AE" transform="translate(6,23)"/>
<path d="M0 0 C7.425 -0.0928125 7.425 -0.0928125 15 -0.1875 C16.54558594 -0.21481201 18.09117188 -0.24212402 19.68359375 -0.27026367 C29.22793642 -0.32799155 37.14700948 0.25683456 44.453125 7.09375 C49.4878304 13.29813443 50.28437713 19.91545609 49.75 27.6875 C49.5237006 29.79434739 49.28205852 31.89989039 49 34 C48.34 32.68 47.68 31.36 47 30 C46.59007812 30.5053125 46.18015625 31.010625 45.7578125 31.53125 C45.21898437 32.1809375 44.68015625 32.830625 44.125 33.5 C43.59132812 34.1496875 43.05765625 34.799375 42.5078125 35.46875 C42.01023438 35.9740625 41.51265625 36.479375 41 37 C40.34 37 39.68 37 39 37 C40.40764891 40.21099637 41.86943923 43.2049574 44 46 C47.66484281 47.2180773 47.66484281 47.2180773 51 47 C51 50.96 51 54.92 51 59 C40.13385827 59.48293963 40.13385827 59.48293963 35.625 57.5625 C31.63741261 53.66985517 28.11545746 49.03829364 26.1796875 43.765625 C25.09718137 41.71042892 25.09718137 41.71042892 22.3984375 41.390625 C21.40070313 41.34421875 20.40296875 41.2978125 19.375 41.25 C17.60125 41.1675 15.8275 41.085 14 41 C14 46.94 14 52.88 14 59 C9.38 59 4.76 59 0 59 C0 39.53 0 20.06 0 0 Z " fill="#0497B1" transform="translate(93,23)"/>
<path d="M0 0 C4.62 0 9.24 0 14 0 C14 7.59 14 15.18 14 23 C21.59 23 29.18 23 37 23 C37 15.41 37 7.82 37 0 C41.62 0 46.24 0 51 0 C51 19.47 51 38.94 51 59 C46.38 59 41.76 59 37 59 C37 51.08 37 43.16 37 35 C29.41 35 21.82 35 14 35 C14 42.92 14 50.84 14 59 C9.38 59 4.76 59 0 59 C0 39.53 0 20.06 0 0 Z " fill="#242424" transform="translate(345,23)"/>
<path d="M0 0 C0.66022156 0.0028299 1.32044312 0.00565979 2.00067139 0.00857544 C4.09959397 0.01972835 6.19808242 0.04482304 8.296875 0.0703125 C9.72395215 0.08034866 11.15103602 0.0894734 12.578125 0.09765625 C16.06784828 0.11965139 19.55731923 0.15414714 23.046875 0.1953125 C23.046875 4.1553125 23.046875 8.1153125 23.046875 12.1953125 C21.19320312 12.24429688 19.33953125 12.29328125 17.4296875 12.34375 C15.01040098 12.41876664 12.5911309 12.49431493 10.171875 12.5703125 C8.33689453 12.61671875 8.33689453 12.61671875 6.46484375 12.6640625 C4.71494141 12.72207031 4.71494141 12.72207031 2.9296875 12.78125 C1.85090332 12.8126709 0.77211914 12.8440918 -0.33935547 12.87646484 C-3.11074154 12.94207572 -3.11074154 12.94207572 -4.953125 15.1953125 C-4.76555438 19.02095915 -4.76555438 19.02095915 -2.953125 22.1953125 C-1.24748722 22.35271855 0.46414744 22.44624642 2.17578125 22.51171875 C3.21025391 22.55361328 4.24472656 22.59550781 5.31054688 22.63867188 C6.39916016 22.67798828 7.48777344 22.71730469 8.609375 22.7578125 C9.70185547 22.80099609 10.79433594 22.84417969 11.91992188 22.88867188 C14.62874268 22.99513208 17.33779151 23.09576057 20.046875 23.1953125 C20.046875 27.1553125 20.046875 31.1153125 20.046875 35.1953125 C17.71689453 35.25138672 17.71689453 35.25138672 15.33984375 35.30859375 C13.304663 35.37424474 11.26950783 35.44069238 9.234375 35.5078125 C8.21021484 35.53037109 7.18605469 35.55292969 6.13085938 35.57617188 C5.14794922 35.61162109 4.16503906 35.64707031 3.15234375 35.68359375 C2.24637451 35.70977783 1.34040527 35.73596191 0.40698242 35.76293945 C-2.37398718 36.2724147 -3.33643153 36.89534745 -4.953125 39.1953125 C-4.87770159 42.31524856 -4.87770159 42.31524856 -3.953125 45.1953125 C-1.32589104 46.50892948 0.77298061 46.40785159 3.7109375 46.51171875 C5.39316406 46.57456055 5.39316406 46.57456055 7.109375 46.63867188 C8.285 46.67798828 9.460625 46.71730469 10.671875 46.7578125 C11.85523437 46.80099609 13.03859375 46.84417969 14.2578125 46.88867188 C17.18735407 46.99498588 20.11709877 47.09567467 23.046875 47.1953125 C23.046875 51.1553125 23.046875 55.1153125 23.046875 59.1953125 C18.92113694 59.31992819 14.79614369 59.41012154 10.66894531 59.4699707 C9.26836031 59.49494662 7.86790339 59.52894067 6.46777344 59.57250977 C-8.64950933 60.03077262 -8.64950933 60.03077262 -14.953125 54.1953125 C-17.953125 50.9140625 -17.953125 50.9140625 -17.953125 48.1953125 C-18.58702148 48.22560547 -19.22091797 48.25589844 -19.87402344 48.28710938 C-43.13229357 49.38539311 -43.13229357 49.38539311 -52.953125 49.1953125 C-52.953125 48.5353125 -52.953125 47.8753125 -52.953125 47.1953125 C-52.293125 47.1953125 -51.633125 47.1953125 -50.953125 47.1953125 C-50.911875 46.6384375 -50.870625 46.0815625 -50.828125 45.5078125 C-49.47759731 41.93856074 -46.98735231 40.39661466 -43.953125 38.1953125 C-42.96699219 37.96400635 -42.96699219 37.96400635 -41.9609375 37.72802734 C-39.52089031 37.08063155 -38.44972891 36.10209473 -36.640625 34.359375 C-36.03992188 33.78960937 -35.43921875 33.21984375 -34.8203125 32.6328125 C-34.20414063 32.0346875 -33.58796875 31.4365625 -32.953125 30.8203125 C-31.72558464 29.64413366 -30.49646187 28.4696037 -29.265625 27.296875 C-28.69166992 26.749104 -28.11771484 26.20133301 -27.52636719 25.63696289 C-25.76167675 24.01987769 -23.87081504 22.62444817 -21.953125 21.1953125 C-20.7014783 19.11196615 -20.7014783 19.11196615 -19.953125 17.1953125 C-19.623125 17.1953125 -19.293125 17.1953125 -18.953125 17.1953125 C-18.74816406 17.83339844 -18.54320312 18.47148438 -18.33203125 19.12890625 C-18.06261719 19.95519531 -17.79320312 20.78148438 -17.515625 21.6328125 C-17.24878906 22.45652344 -16.98195312 23.28023437 -16.70703125 24.12890625 C-16.13157006 26.15750838 -16.13157006 26.15750838 -14.953125 27.1953125 C-14.623125 26.5353125 -14.293125 25.8753125 -13.953125 25.1953125 C-13.31503906 24.92589844 -12.67695312 24.65648438 -12.01953125 24.37890625 C-9.23029813 22.78129257 -8.90918981 21.26059447 -7.890625 18.2578125 C-6.70809935 14.8117399 -5.86508417 12.45228031 -2.953125 10.1953125 C-0.40942383 9.76293945 -0.40942383 9.76293945 2.58984375 9.68359375 C3.66298828 9.64814453 4.73613281 9.61269531 5.84179688 9.57617188 C6.96134766 9.55361328 8.08089844 9.53105469 9.234375 9.5078125 C10.93110352 9.45657227 10.93110352 9.45657227 12.66210938 9.40429688 C15.4569324 9.32174936 18.25143898 9.25262068 21.046875 9.1953125 C20.056875 6.2253125 20.056875 6.2253125 19.046875 3.1953125 C10.136875 2.8653125 1.226875 2.5353125 -7.953125 2.1953125 C-8.283125 3.1853125 -8.613125 4.1753125 -8.953125 5.1953125 C-9.778125 5.5046875 -10.603125 5.8140625 -11.453125 6.1328125 C-12.278125 6.4834375 -13.103125 6.8340625 -13.953125 7.1953125 C-14.84005803 9.23636889 -14.84005803 9.23636889 -14.953125 11.1953125 C-15.943125 11.1953125 -16.933125 11.1953125 -17.953125 11.1953125 C-16.38172277 6.05254158 -13.65786125 3.91727191 -9.22363281 1.09423828 C-6.0797957 -0.15045078 -3.37514211 -0.0286029 0 0 Z " fill="#0596B0" transform="translate(68.953125,22.8046875)"/>
<path d="M0 0 C1.05055321 0.00848969 1.05055321 0.00848969 2.12232971 0.01715088 C4.3335857 0.0393328 6.54314998 0.08948694 8.75390625 0.140625 C10.26364828 0.16071385 11.773416 0.17896042 13.28320312 0.1953125 C16.96147624 0.23913553 20.63877581 0.30803159 24.31640625 0.390625 C24.31640625 4.350625 24.31640625 8.310625 24.31640625 12.390625 C23.47343994 12.41568115 22.63047363 12.4407373 21.76196289 12.46655273 C18.64398951 12.56150655 15.52619122 12.66074948 12.40844727 12.76293945 C11.05726478 12.80633723 9.70602572 12.8480087 8.35473633 12.88793945 C6.41603924 12.94552452 4.47754349 13.00976798 2.5390625 13.07421875 C1.37125244 13.11087646 0.20344238 13.14753418 -0.99975586 13.18530273 C-3.6013917 13.09138688 -3.6013917 13.09138688 -4.68359375 14.390625 C-4.93364761 17.34879607 -4.93364761 17.34879607 -4.68359375 20.390625 C-1.65146319 23.42275556 1.8746498 22.64283179 5.94140625 22.703125 C12.81697802 22.95008266 18.23932939 23.27147292 23.31640625 28.390625 C24.14140625 29.215625 24.96640625 30.040625 25.81640625 30.890625 C28.10064411 36.22051334 27.99621711 41.66756612 27.31640625 47.390625 C26.65640625 48.050625 25.99640625 48.710625 25.31640625 49.390625 C25.31640625 48.730625 25.31640625 48.070625 25.31640625 47.390625 C24.36765625 47.431875 23.41890625 47.473125 22.44140625 47.515625 C19.31640625 47.390625 19.31640625 47.390625 17.31640625 45.390625 C17.31640625 44.400625 17.31640625 43.410625 17.31640625 42.390625 C16.32640625 41.895625 16.32640625 41.895625 15.31640625 41.390625 C15.97640625 40.070625 16.63640625 38.750625 17.31640625 37.390625 C16.65640625 37.390625 15.99640625 37.390625 15.31640625 37.390625 C14.65640625 36.730625 13.99640625 36.070625 13.31640625 35.390625 C11.21420174 35.19536241 11.21420174 35.19536241 8.80859375 35.37109375 C7.90367187 35.40009766 6.99875 35.42910156 6.06640625 35.45898438 C4.17260974 35.53746371 2.27927888 35.62830471 0.38671875 35.73242188 C-6.31114 35.9168968 -10.49691769 34.70377274 -15.68359375 30.390625 C-19.84332559 25.82833846 -20.09440734 21.21146663 -20.0234375 15.25 C-19.49617778 10.8137458 -17.85964858 7.52479778 -14.68359375 4.390625 C-9.53382787 0.96079419 -6.32901474 -0.10167092 0 0 Z " fill="#262626" transform="translate(316.68359375,22.609375)"/>
<path d="M0 0 C4.55170469 2.33574319 8.19106724 5.51497596 10.03125 10.3515625 C10.83271355 16.32738724 11.25275261 22.86122086 8.53125 28.4140625 C4.92763954 32.64830479 1.32557934 35.76627556 -4.27734375 36.76171875 C-9.19305137 36.95237857 -12.83625429 36.16917321 -16.96875 33.3515625 C-21.84024429 28.36935243 -23.6780356 24.35561129 -24.34375 17.4765625 C-24.1802721 12.1328788 -22.14519169 7.64733911 -18.47265625 3.7734375 C-13.12523095 -0.86722086 -6.79289652 -2.2373429 0 0 Z " fill="#F6FDFD" transform="translate(178.96875,34.6484375)"/>
<path d="M0 0 C0.76626709 0.03029297 1.53253418 0.06058594 2.32202148 0.09179688 C6.02695949 0.23436831 9.73212725 0.36932108 13.4375 0.5 C14.11962555 0.52434113 14.8017511 0.54868225 15.50454712 0.57376099 C23.76036293 0.86112986 32.00446515 1.03887869 40.265625 0.99609375 C41.39164879 0.99079147 41.39164879 0.99079147 42.54042053 0.98538208 C46.18869926 0.96471953 49.83619371 0.92869472 53.48413086 0.875 C54.80292236 0.86339844 56.12171387 0.85179688 57.48046875 0.83984375 C59.22686646 0.81458618 59.22686646 0.81458618 61.00854492 0.78881836 C63.920645 0.99439794 65.54810365 1.47578726 68 3 C68 3.66 68 4.32 68 5 C66.4984436 4.76228882 66.4984436 4.76228882 64.96655273 4.51977539 C61.15564804 3.97700021 57.38466588 3.79540523 53.53515625 3.68359375 C51.67322632 3.62643188 51.67322632 3.62643188 49.77368164 3.56811523 C47.44164673 3.50346069 47.44164673 3.50346069 45.0625 3.4375 C40.091875 3.293125 35.12125 3.14875 30 3 C30 22.47 30 41.94 30 62 C34.62 62 39.24 62 44 62 C44 56.06 44 50.12 44 44 C47.63 44 51.26 44 55 44 C55 44.33 55 44.66 55 45 C51.7 45 48.4 45 45 45 C45 50.94 45 56.88 45 63 C29.49 63 13.98 63 -2 63 C-1.67 62.34 -1.34 61.68 -1 61 C8.9 61.33 18.8 61.66 29 62 C29 58.04 29 54.08 29 50 C26.36257812 50.06960937 26.36257812 50.06960937 23.671875 50.140625 C21.3646003 50.17814166 19.05730726 50.21454193 16.75 50.25 C15.59113281 50.28351563 14.43226562 50.31703125 13.23828125 50.3515625 C11.56572266 50.37089844 11.56572266 50.37089844 9.859375 50.390625 C8.83295898 50.41157227 7.80654297 50.43251953 6.74902344 50.45410156 C3.27330806 49.8799603 2.09295411 48.78767944 0 46 C0.0625 42.875 0.0625 42.875 1 40 C4.30288336 37.79807776 5.27462727 37.76040032 9.10546875 37.8046875 C10.08837891 37.81113281 11.07128906 37.81757812 12.08398438 37.82421875 C13.10814453 37.84097656 14.13230469 37.85773437 15.1875 37.875 C16.22326172 37.88402344 17.25902344 37.89304688 18.32617188 37.90234375 C20.88421306 37.92592017 23.44213553 37.96179124 26 38 C26 34.04 26 30.08 26 26 C23.56173828 26.06960937 23.56173828 26.06960937 21.07421875 26.140625 C18.94533083 26.17813844 16.8164231 26.21453906 14.6875 26.25 C13.61564453 26.28351562 12.54378906 26.31703125 11.43945312 26.3515625 C9.89741211 26.37089844 9.89741211 26.37089844 8.32421875 26.390625 C7.37635498 26.41157227 6.42849121 26.43251953 5.4519043 26.45410156 C3 26 3 26 1.15551758 24.13964844 C0 22 0 22 0.1875 19.375 C1 17 1 17 3 15 C5.61376953 14.77294922 5.61376953 14.77294922 8.8828125 14.8046875 C10.63271484 14.81435547 10.63271484 14.81435547 12.41796875 14.82421875 C13.64128906 14.84097656 14.86460938 14.85773437 16.125 14.875 C17.35605469 14.88402344 18.58710937 14.89304687 19.85546875 14.90234375 C22.90372806 14.92597367 25.95188789 14.96184561 29 15 C29 11.04 29 7.08 29 3 C19.1 3 9.2 3 -1 3 C-0.67 2.01 -0.34 1.02 0 0 Z " fill="#D7FDFE" transform="translate(63,20)"/>
<path d="M0 0 C0 0.66 0 1.32 0 2 C0.62648437 1.96519531 1.25296875 1.93039063 1.8984375 1.89453125 C2.71570313 1.86746094 3.53296875 1.84039063 4.375 1.8125 C5.18710938 1.77769531 5.99921875 1.74289063 6.8359375 1.70703125 C7.55007812 1.80371094 8.26421875 1.90039062 9 2 C9.99 3.485 9.99 3.485 11 5 C13.56282742 5.72965366 13.56282742 5.72965366 16 6 C16.495 7.98 16.495 7.98 17 10 C18.32 10.33 19.64 10.66 21 11 C21 12.32 21 13.64 21 15 C21.66 15 22.32 15 23 15 C25.80431285 19.79781501 25.16945937 24.28819965 24.9375 29.6875 C24.91526367 31.12125977 24.91526367 31.12125977 24.89257812 32.58398438 C24.62045296 39.35021513 23.16565502 44.56474047 19 50 C15.52648925 52.31567384 14.08600528 52.59587577 10 52 C8.125 49.5 8.125 49.5 7 47 C7.66 47 8.32 47 9 47 C9 46.34 9 45.68 9 45 C10.98 44.505 10.98 44.505 13 44 C13.33 44.66 13.66 45.32 14 46 C14 45.34 14 44.68 14 44 C13.34 43.34 12.68 42.68 12 42 C12.32613281 41.16726562 12.65226562 40.33453125 12.98828125 39.4765625 C14.11347192 35.6100772 14.2318072 32.39487164 14.1875 28.375 C14.17783203 26.43753906 14.17783203 26.43753906 14.16796875 24.4609375 C14.02071135 20.62888264 14.02071135 20.62888264 13 17 C10.50965614 15.70339566 10.50965614 15.70339566 8 15 C8 14.34 8 13.68 8 13 C7.01 12.67 6.02 12.34 5 12 C5 11.34 5 10.68 5 10 C2.60385425 10.14165893 0.20817103 10.28818841 -2.1875 10.4375 C-2.86103516 10.47681641 -3.53457031 10.51613281 -4.22851562 10.55664062 C-7.89699102 10.78927565 -11.41694206 11.17207011 -15 12 C-15 11.01 -15 10.02 -15 9 C-15.66 9 -16.32 9 -17 9 C-17 9.66 -17 10.32 -17 11 C-17.66 11 -18.32 11 -19 11 C-19.33 10.01 -19.66 9.02 -20 8 C-19.34 8 -18.68 8 -18 8 C-17.87625 7.236875 -17.7525 6.47375 -17.625 5.6875 C-15.32658437 1.88627414 -12.72976389 1.56923619 -8.5546875 0.4921875 C-5.65103269 -0.06723223 -2.94909793 -0.23282352 0 0 Z " fill="#0396B0" transform="translate(176,23)"/>
<path d="M0 0 C1.32 0.33 2.64 0.66 4 1 C4 1.66 4 2.32 4 3 C4.763125 2.814375 5.52625 2.62875 6.3125 2.4375 C9 2 9 2 12 3 C12.65705933 3.7576062 12.65705933 3.7576062 13.32739258 4.53051758 C15.73713271 6.64761374 17.59215436 6.43127295 20.76171875 6.51171875 C22.43911133 6.56489258 22.43911133 6.56489258 24.15039062 6.61914062 C25.31763672 6.64169922 26.48488281 6.66425781 27.6875 6.6875 C28.86634766 6.72166016 30.04519531 6.75582031 31.25976562 6.79101562 C34.17284019 6.87357239 37.08640568 6.93846013 40 7 C40 10.96 40 14.92 40 19 C35.87426194 19.12461569 31.74926869 19.21480904 27.62207031 19.2746582 C26.22148531 19.29963412 24.82102839 19.33362817 23.42089844 19.37719727 C9.41440725 19.80178776 9.41440725 19.80178776 3.40039062 15.37573242 C1.10788473 13.12359318 0.03771652 11.52124234 -0.1953125 8.30078125 C-0.17210937 7.31464844 -0.14890625 6.32851562 -0.125 5.3125 C-0.10695312 4.31863281 -0.08890625 3.32476562 -0.0703125 2.30078125 C-0.04710937 1.54152344 -0.02390625 0.78226563 0 0 Z " fill="#0495B0" transform="translate(52,63)"/>
<path d="M0 0 C0.33 0 0.66 0 1 0 C1.19335938 0.60328125 1.38671875 1.2065625 1.5859375 1.828125 C1.97652344 3.02695312 1.97652344 3.02695312 2.375 4.25 C2.63023438 5.03890625 2.88546875 5.8278125 3.1484375 6.640625 C3.95173667 8.86627958 4.89711662 10.90931672 6 13 C5.0409375 14.1446875 5.0409375 14.1446875 4.0625 15.3125 C0.05565988 20.5335341 1 22.60928611 1 30 C-8.9 30 -18.8 30 -29 30 C-26.9685921 25.9371842 -24.69368982 23.62253805 -21.375 20.6875 C-20.83738037 20.204021 -20.29976074 19.72054199 -19.74584961 19.22241211 C-18.16962198 17.80835654 -16.58602818 16.40304476 -15 15 C-13.81470703 13.94425781 -13.81470703 13.94425781 -12.60546875 12.8671875 C-9.83377733 10.41877175 -7.06959609 8.05295355 -4.125 5.8125 C-1.98142355 3.98415538 -1.02089812 2.59864977 0 0 Z " fill="#FAFEFD" transform="translate(49,40)"/>
<path d="M0 0 C4.45821166 -0.08674429 8.91620804 -0.14030513 13.375 -0.1875 C14.64601563 -0.21263672 15.91703125 -0.23777344 17.2265625 -0.26367188 C18.43828125 -0.27333984 19.65 -0.28300781 20.8984375 -0.29296875 C22.01911621 -0.3086792 23.13979492 -0.32438965 24.29443359 -0.34057617 C25.18727051 -0.22818604 26.08010742 -0.1157959 27 0 C29 3 29 3 29 7 C26.06077916 7.83737768 23.39152647 8.14375919 20.33984375 8.2109375 C19.46392578 8.23929688 18.58800781 8.26765625 17.68554688 8.296875 C15.84981738 8.34906347 14.0138451 8.39330314 12.17773438 8.4296875 C10.86579102 8.47609375 10.86579102 8.47609375 9.52734375 8.5234375 C8.33226196 8.5531665 8.33226196 8.5531665 7.11303711 8.58349609 C4.50789086 9.09700037 3.62911024 9.94156761 2 12 C1.07700854 14.19501321 1.07700854 14.19501321 0.4375 16.5625 C-0.79166667 20.79166667 -0.79166667 20.79166667 -3 23 C-3.99 23 -4.98 23 -6 23 C-6.33 23.99 -6.66 24.98 -7 26 C-10.52982362 21.47741349 -11.53009306 18.72500506 -11 13 C-10.5 10.5625 -10.5 10.5625 -10 9 C-9.01 9 -8.02 9 -7 9 C-6.938125 8.21625 -6.87625 7.4325 -6.8125 6.625 C-6.544375 5.75875 -6.27625 4.8925 -6 4 C-3.5 2.8125 -3.5 2.8125 -1 2 C-0.67 1.34 -0.34 0.68 0 0 Z " fill="#0496AF" transform="translate(61,25)"/>
<path d="M0 0 C3.5578125 -0.12375 3.5578125 -0.12375 7.1875 -0.25 C7.92508545 -0.28641602 8.6626709 -0.32283203 9.42260742 -0.36035156 C12.96245031 -0.4196278 14.89751317 -0.06285859 17.9296875 1.796875 C20.74787589 4.79585283 20.92749072 6.93948029 21 11 C20.23891804 14.04432785 19.1943308 14.85293885 16.6875 16.75 C11.07983954 18.65090185 5.90368665 18.1807251 0 18 C0 12.06 0 6.12 0 0 Z " fill="#F4FCFB" transform="translate(107,35)"/>
<path d="M0 0 C0 3.63 0 7.26 0 11 C-7.92 11 -15.84 11 -24 11 C-24.33 10.01 -24.66 9.02 -25 8 C-25.66 8 -26.32 8 -27 8 C-27.20086443 4.28400809 -27.1519437 3.22791555 -25 0 C-22.69335938 -0.44824219 -22.69335938 -0.44824219 -19.84375 -0.546875 C-18.31041016 -0.60681641 -18.31041016 -0.60681641 -16.74609375 -0.66796875 C-15.13927734 -0.70857422 -15.13927734 -0.70857422 -13.5 -0.75 C-11.89318359 -0.81380859 -11.89318359 -0.81380859 -10.25390625 -0.87890625 C-2.29947609 -1.14973805 -2.29947609 -1.14973805 0 0 Z " fill="#F6FEFC" transform="translate(92,58)"/>
<path d="M0 0 C1.11826172 0.00322266 2.23652344 0.00644531 3.38867188 0.00976562 C4.55591797 0.01814453 5.72316406 0.02652344 6.92578125 0.03515625 C8.10462891 0.03966797 9.28347656 0.04417969 10.49804688 0.04882812 C13.41150914 0.06062352 16.32486988 0.07708355 19.23828125 0.09765625 C19.23828125 3.39765625 19.23828125 6.69765625 19.23828125 10.09765625 C15.13664987 12.14847194 9.79183863 11.06340806 5.30078125 10.91015625 C4.19025391 10.89146484 3.07972656 10.87277344 1.93554688 10.85351562 C0.87142578 10.81677734 -0.19269531 10.78003906 -1.2890625 10.7421875 C-2.75460571 10.70121948 -2.75460571 10.70121948 -4.24975586 10.65942383 C-6.76171875 10.09765625 -6.76171875 10.09765625 -8.62329102 8.22924805 C-9.76171875 6.09765625 -9.76171875 6.09765625 -9.44921875 3.34765625 C-9.22234375 2.60515625 -8.99546875 1.86265625 -8.76171875 1.09765625 C-5.58384334 0.03836445 -3.33582932 -0.01693314 0 0 Z " fill="#F2FDFC" transform="translate(72.76171875,35.90234375)"/>
<path d="M0 0 C1.08946678 -0.00855011 1.08946678 -0.00855011 2.20094299 -0.01727295 C3.74014829 -0.026735 5.27937395 -0.0332617 6.81860352 -0.03710938 C9.17825486 -0.04682087 11.53703749 -0.07783357 13.89648438 -0.109375 C15.38931772 -0.1159042 16.88215732 -0.121155 18.375 -0.125 C19.08337509 -0.1373468 19.79175018 -0.1496936 20.52159119 -0.16241455 C22.51342773 -0.15332031 22.51342773 -0.15332031 25.75390625 0.203125 C26.41390625 1.193125 27.07390625 2.183125 27.75390625 3.203125 C27.13515625 3.780625 26.51640625 4.358125 25.87890625 4.953125 C23.94043572 7.00562321 22.85376376 8.63679082 21.75390625 11.203125 C21.09390625 11.203125 20.43390625 11.203125 19.75390625 11.203125 C19.09390625 10.213125 18.43390625 9.223125 17.75390625 8.203125 C15.03907031 7.78574628 15.03907031 7.78574628 11.87109375 7.91015625 C10.12119141 7.9246582 10.12119141 7.9246582 8.3359375 7.93945312 C6.50095703 7.9771582 6.50095703 7.9771582 4.62890625 8.015625 C3.39785156 8.02916016 2.16679687 8.04269531 0.8984375 8.05664062 C-2.15017218 8.09208957 -5.19791875 8.14150421 -8.24609375 8.203125 C-8.28851098 5.87017725 -8.28702312 3.53609933 -8.24609375 1.203125 C-6.30451199 -0.73845676 -2.64983766 0.01585233 0 0 Z " fill="#0396B0" transform="translate(16.24609375,24.796875)"/>
<path d="M0 0 C7.425 -0.0928125 7.425 -0.0928125 15 -0.1875 C16.54558594 -0.21481201 18.09117188 -0.24212402 19.68359375 -0.27026367 C29.58712572 -0.33016407 36.97753497 0.45238942 44.58984375 7.37109375 C46.59629238 9.68879202 47.36447943 12.03423732 48 15 C46.62437146 13.71034824 45.29233607 12.37310707 44 11 C44 10.34 44 9.68 44 9 C43.01 8.67 42.02 8.34 41 8 C40.505 7.01 40.505 7.01 40 6 C31.92163854 2.66655704 23.42284912 2.47619888 14.8125 2.3125 C8.4703125 2.1578125 8.4703125 2.1578125 2 2 C2.33 19.82 2.66 37.64 3 56 C6.3 56.66 9.6 57.32 13 58 C13 52.39 13 46.78 13 41 C13.33 41 13.66 41 14 41 C14 46.94 14 52.88 14 59 C9.38 59 4.76 59 0 59 C0 39.53 0 20.06 0 0 Z " fill="#278FA1" transform="translate(93,23)"/>
<path d="M0 0 C0.99 0.33 1.98 0.66 3 1 C3.9831543 3.00952148 3.9831543 3.00952148 4.82421875 5.62109375 C5.13037109 6.55630859 5.43652344 7.49152344 5.75195312 8.45507812 C6.06068359 9.43927734 6.36941406 10.42347656 6.6875 11.4375 C7.16799805 12.90799805 7.16799805 12.90799805 7.65820312 14.40820312 C10 21.66327958 10 21.66327958 10 24 C4.06 24 -1.88 24 -8 24 C-5.36 16.08 -2.72 8.16 0 0 Z " fill="#F3F3F3" transform="translate(268,35)"/>
<path d="M0 0 C0.33 0 0.66 0 1 0 C1.20753906 1.05058594 1.41507813 2.10117187 1.62890625 3.18359375 C3.49760464 11.92360848 5.528742 18.45603123 12 25 C11.34 25.33 10.68 25.66 10 26 C8.35 24.68 6.7 23.36 5 22 C5 24.97 5 27.94 5 31 C4.67 31 4.34 31 4 31 C4 27.04 4 23.08 4 19 C2.4221875 19.2475 2.4221875 19.2475 0.8125 19.5 C-3 19 -3 19 -4.578125 17.2890625 C-8 11.84159483 -8 11.84159483 -8 9 C-6.49802644 7.75923923 -4.99387685 6.52078183 -3.46875 5.30859375 C-1.71339865 3.74465039 -0.81385136 2.19739866 0 0 Z " fill="#E1FAFB" transform="translate(140,51)"/>
<path d="M0 0 C0.33 0 0.66 0 1 0 C1 9.9 1 19.8 1 30 C5.62 30 10.24 30 15 30 C15 24.06 15 18.12 15 12 C18.63 12 22.26 12 26 12 C26 12.33 26 12.66 26 13 C22.7 13 19.4 13 16 13 C16 18.94 16 24.88 16 31 C0.49 31 -15.02 31 -31 31 C-30.67 30.34 -30.34 29.68 -30 29 C-20.1 29.33 -10.2 29.66 0 30 C0 26.04 0 22.08 0 18 C-1.75828125 18.04640625 -3.5165625 18.0928125 -5.328125 18.140625 C-7.6353997 18.17814166 -9.94269274 18.21454193 -12.25 18.25 C-13.40886719 18.28351563 -14.56773438 18.31703125 -15.76171875 18.3515625 C-16.87675781 18.36445312 -17.99179688 18.37734375 -19.140625 18.390625 C-20.16704102 18.41157227 -21.19345703 18.43251953 -22.25097656 18.45410156 C-25.72855432 17.87965266 -26.91911376 16.80172432 -29 14 C-28.75 10.75 -28.75 10.75 -28 8 C-27.01 8 -26.02 8 -25 8 C-25.66 9.98 -26.32 11.96 -27 14 C-26.34 14 -25.68 14 -25 14 C-24.67 14.66 -24.34 15.32 -24 16 C-16.08 16.33 -8.16 16.66 0 17 C0 11.39 0 5.78 0 0 Z " fill="#C7F9FC" transform="translate(92,52)"/>
<path d="M0 0 C4.66410366 1.47287484 4.66410366 1.47287484 6.15185547 3.80761719 C7.06326142 6.16352549 7.23123633 7.81345672 7.1953125 10.328125 C7.18886719 11.12734375 7.18242187 11.9265625 7.17578125 12.75 C7.15902344 13.575 7.14226562 14.4 7.125 15.25 C7.11597656 16.09046875 7.10695312 16.9309375 7.09765625 17.796875 C7.07415817 19.86470604 7.03828908 21.93238995 7 24 C6.34 24 5.68 24 5 24 C5.61277612 26.96175123 6.25372522 28.38058783 8 31 C6.68 31.33 5.36 31.66 4 32 C3.67 31.34 3.34 30.68 3 30 C2.34 30 1.68 30 1 30 C1 30.66 1 31.32 1 32 C-4.57468542 35.61601216 -9.60567654 35.30720059 -16 35 C-16 34.34 -16 33.68 -16 33 C-15.443125 32.98582031 -14.88625 32.97164062 -14.3125 32.95703125 C-8.32388178 32.58274261 -3.43216938 31.22159119 1 27 C4.96250101 20.6053432 4.80495586 14.31238848 4 7 C2.96097579 4.16179968 1.84803205 2.42554207 0 0 Z " fill="#2C9BAE" transform="translate(184,38)"/>
<path d="M0 0 C1.22589844 -0.00515625 2.45179687 -0.0103125 3.71484375 -0.015625 C7.77035752 0.30616606 9.86866077 1.141435 12.8125 3.875 C14.61267136 7.29532558 14.61285549 10.50907013 14.0625 14.25 C12.84286118 17.05516928 11.93526291 18.65717991 9.40625 20.375 C6.14688222 21.59183064 3.27852861 21.43918571 -0.1875 21.375 C-1.45078125 21.35695313 -2.7140625 21.33890625 -4.015625 21.3203125 C-4.97984375 21.29710938 -5.9440625 21.27390625 -6.9375 21.25 C-6.9375 20.92 -6.9375 20.59 -6.9375 20.25 C-6.14085938 20.20101562 -5.34421875 20.15203125 -4.5234375 20.1015625 C3.44407314 19.54970605 3.44407314 19.54970605 11.0625 17.25 C11.36806226 15.86135566 11.63050808 14.46318736 11.875 13.0625 C12.02582031 12.28519531 12.17664063 11.50789063 12.33203125 10.70703125 C12.24300608 8.01981983 12.24300608 8.01981983 10.0625 5.5 C6.43983706 2.7830028 3.6116119 2.47704274 -0.75 2.4375 C-3.121875 2.375625 -5.49375 2.31375 -7.9375 2.25 C-7.9375 7.86 -7.9375 13.47 -7.9375 19.25 C-8.5975 19.25 -9.2575 19.25 -9.9375 19.25 C-10.01821788 16.45775927 -10.07785408 13.66783434 -10.125 10.875 C-10.15013672 10.0809375 -10.17527344 9.286875 -10.20117188 8.46875 C-10.22754405 6.39413852 -10.09236462 4.31899135 -9.9375 2.25 C-6.26994001 -0.19503999 -4.36271863 -0.01831152 0 0 Z " fill="#2191A3" transform="translate(114.9375,32.75)"/>
<path d="M0 0 C1.31226563 -0.01675781 2.62453125 -0.03351562 3.9765625 -0.05078125 C7.375 0.3125 7.375 0.3125 9.3359375 1.83203125 C9.67882812 2.32058594 10.02171875 2.80914062 10.375 3.3125 C10.045 3.9725 9.715 4.6325 9.375 5.3125 C8.570625 4.8175 7.76625 4.3225 6.9375 3.8125 C1.39393172 1.47836599 -3.28334244 1.47303786 -8.9375 3.5 C-13.39224598 6.50436357 -16.17802848 10.12751871 -17.625 15.3125 C-18.10465036 21.16423437 -17.62438061 26.15971793 -14.625 31.3125 C-12.7395475 33.29390428 -10.87088488 34.71542631 -8.625 36.3125 C-10.605 36.8075 -10.605 36.8075 -12.625 37.3125 C-12.625 36.6525 -12.625 35.9925 -12.625 35.3125 C-14.605 34.9825 -16.585 34.6525 -18.625 34.3125 C-20.54552958 24.22971973 -21.30436387 14.18650605 -15.625 5.3125 C-14.965 5.3125 -14.305 5.3125 -13.625 5.3125 C-13.295 4.3225 -12.965 3.3325 -12.625 2.3125 C-8.52395595 0.01622253 -4.6281157 0.01369265 0 0 Z " fill="#2492A6" transform="translate(173.625,32.6875)"/>
<path d="M0 0 C0.66 0 1.32 0 2 0 C2.33 0.66 2.66 1.32 3 2 C4.65 2 6.3 2 8 2 C8.12375 3.216875 8.2475 4.43375 8.375 5.6875 C8.78891306 9.06479059 9.54573451 11.89756695 11 15 C12.65 15 14.3 15 16 15 C16 15.66 16 16.32 16 17 C18.97 17 21.94 17 25 17 C24.96104904 12.89352823 24.96104904 12.89352823 24 9 C20.545183 7.26931729 20.545183 7.26931729 17 6 C16.0625 3.3125 16.0625 3.3125 16 1 C16.350625 1.639375 16.70125 2.27875 17.0625 2.9375 C19.77184206 5.82163832 22.15858911 5.7100822 26 6 C26 9.96 26 13.92 26 18 C15.13385827 18.48293963 15.13385827 18.48293963 10.625 16.5625 C5.73864503 11.79248682 2.38644471 6.38261392 0 0 Z " fill="#2B93A4" transform="translate(118,64)"/>
<path d="M0 0 C0.53915039 0.4844458 1.07830078 0.9688916 1.63378906 1.46801758 C4.55768283 3.36106683 6.39550128 3.42335462 9.859375 3.51171875 C11.53193359 3.56489258 11.53193359 3.56489258 13.23828125 3.61914062 C14.39714844 3.64169922 15.55601563 3.66425781 16.75 3.6875 C18.51150391 3.73874023 18.51150391 3.73874023 20.30859375 3.79101562 C23.20539401 3.8734449 26.10268196 3.93840013 29 4 C29 7.96 29 11.92 29 16 C24.87426194 16.12461569 20.74926869 16.21480904 16.62207031 16.2746582 C15.22148531 16.29963412 13.82102839 16.33362817 12.42089844 16.37719727 C-1.55509636 16.8008633 -1.55509636 16.8008633 -7.59960938 12.47338867 C-9.20027552 10.78928473 -10.07033504 9.11860692 -11 7 C-10.34 7 -9.68 7 -9 7 C-9 7.66 -9 8.32 -9 9 C-8.34 9 -7.68 9 -7 9 C-7 9.66 -7 10.32 -7 11 C-6.4225 11.144375 -5.845 11.28875 -5.25 11.4375 C-2.125 12.21875 -2.125 12.21875 1 13 C1 13.66 1 14.32 1 15 C9.91 15 18.82 15 28 15 C27.505 10.545 27.505 10.545 27 6 C26.2886792 5.97494385 25.5773584 5.9498877 24.84448242 5.92407227 C21.62530483 5.80811561 18.40642015 5.68538755 15.1875 5.5625 C14.06794922 5.52318359 12.94839844 5.48386719 11.79492188 5.44335938 C10.72177734 5.40146484 9.64863281 5.35957031 8.54296875 5.31640625 C7.55321045 5.27974854 6.56345215 5.24309082 5.54370117 5.20532227 C3 5 3 5 0 4 C0 2.68 0 1.36 0 0 Z " fill="#2D95A4" transform="translate(63,66)"/>
<path d="M0 0 C4.44980976 1.48326992 6.86207327 5.00774906 9 9 C12.35976343 18.79735211 12.81114667 29.32481482 8.3125 38.75 C6.111643 42.8218698 3.73710783 45.27515818 0 48 C0.33 46.68 0.66 45.36 1 44 C1.66 44 2.32 44 3 44 C3.28875 43.071875 3.5775 42.14375 3.875 41.1875 C5 38 5 38 7 35 C7.38232599 32.64937096 7.38232599 32.64937096 7.44921875 30.03515625 C7.51399414 28.58786133 7.51399414 28.58786133 7.58007812 27.11132812 C7.63325195 25.6021582 7.63325195 25.6021582 7.6875 24.0625 C7.73455078 23.06025391 7.78160156 22.05800781 7.83007812 21.02539062 C8.11173135 14.94311564 8.11173135 14.94311564 7 9 C6.34 9 5.68 9 5 9 C5 7.68 5 6.36 5 5 C3.68 4.67 2.36 4.34 1 4 C0.67 2.68 0.34 1.36 0 0 Z " fill="#208FA0" transform="translate(192,29)"/>
<path d="M0 0 C9.57 0 19.14 0 29 0 C27.16622942 3.66754116 26.11129 5.06693271 23.125 7.625 C22.44695313 8.21539062 21.76890625 8.80578125 21.0703125 9.4140625 C19.11333531 10.91318087 17.23951463 11.98569068 15 13 C15 12.01 15 11.02 15 10 C15.66 10 16.32 10 17 10 C17.33 9.01 17.66 8.02 18 7 C18.99 6.67 19.98 6.34 21 6 C20.67 4.68 20.34 3.36 20 2 C13.73 2 7.46 2 1 2 C0.67 1.34 0.34 0.68 0 0 Z " fill="#EBFEFE" transform="translate(6,35)"/>
<path d="M0 0 C0.66022156 0.0028299 1.32044312 0.00565979 2.00067139 0.00857544 C4.09959397 0.01972835 6.19808242 0.04482304 8.296875 0.0703125 C9.72395215 0.08034866 11.15103602 0.0894734 12.578125 0.09765625 C16.06784828 0.11965139 19.55731923 0.15414714 23.046875 0.1953125 C23.046875 4.1553125 23.046875 8.1153125 23.046875 12.1953125 C15.456875 12.1953125 7.866875 12.1953125 0.046875 12.1953125 C0.046875 11.8653125 0.046875 11.5353125 0.046875 11.1953125 C7.306875 11.1953125 14.566875 11.1953125 22.046875 11.1953125 C22.046875 7.8953125 22.046875 4.5953125 22.046875 1.1953125 C12.146875 1.5253125 2.246875 1.8553125 -7.953125 2.1953125 C-8.283125 3.1853125 -8.613125 4.1753125 -8.953125 5.1953125 C-9.778125 5.5046875 -10.603125 5.8140625 -11.453125 6.1328125 C-12.278125 6.4834375 -13.103125 6.8340625 -13.953125 7.1953125 C-14.84005803 9.23636889 -14.84005803 9.23636889 -14.953125 11.1953125 C-15.943125 11.1953125 -16.933125 11.1953125 -17.953125 11.1953125 C-16.38172277 6.05254158 -13.65786125 3.91727191 -9.22363281 1.09423828 C-6.0797957 -0.15045078 -3.37514211 -0.0286029 0 0 Z " fill="#3695A2" transform="translate(68.953125,22.8046875)"/>
<path d="M0 0 C0.53625 0.7425 1.0725 1.485 1.625 2.25 C4.15264739 5.17674961 6.71827368 6.98621339 10 9 C8.1875 10.0625 8.1875 10.0625 6 11 C5.01 10.67 4.02 10.34 3 10 C3 10.66 3 11.32 3 12 C-1.37158615 13.10598672 -5.56853559 13.06034106 -10.0390625 12.9140625 C-10.80173431 12.89282318 -11.56440613 12.87158386 -12.35018921 12.84970093 C-13.95554655 12.80361048 -15.56082505 12.75469739 -17.16601562 12.703125 C-19.62353653 12.6250465 -22.08118526 12.55797966 -24.5390625 12.4921875 C-26.10158202 12.44596788 -27.66408296 12.3991147 -29.2265625 12.3515625 C-30.32818222 12.32178818 -30.32818222 12.32178818 -31.45205688 12.29141235 C-34.53948097 12.18687019 -37.05014801 11.983284 -40 11 C-39.67 10.34 -39.34 9.68 -39 9 C-38.01 9.33 -37.02 9.66 -36 10 C-33.27116927 10.15370348 -30.56302858 10.25728265 -27.83203125 10.31640625 C-27.03721848 10.33718735 -26.2424057 10.35796844 -25.42350769 10.37937927 C-22.88659237 10.44472087 -20.34957427 10.50368808 -17.8125 10.5625 C-16.09178628 10.60569986 -14.37108292 10.64931463 -12.65039062 10.69335938 C-8.43369887 10.80038648 -4.2169038 10.90169724 0 11 C0 7.37 0 3.74 0 0 Z " fill="#CFF6F9" transform="translate(50,71)"/>
<path d="M0 0 C0.33 0 0.66 0 1 0 C1.19335938 0.60328125 1.38671875 1.2065625 1.5859375 1.828125 C1.97652344 3.02695312 1.97652344 3.02695312 2.375 4.25 C2.63023438 5.03890625 2.88546875 5.8278125 3.1484375 6.640625 C3.95173667 8.86627958 4.89711662 10.90931672 6 13 C4.68 13.99 3.36 14.98 2 16 C1.67 13.03 1.34 10.06 1 7 C-7.65241929 9.69186378 -14.88351954 16.64932308 -20 24 C-21.32 23.67 -22.64 23.34 -24 23 C-23.0821875 22.21496094 -22.164375 21.42992188 -21.21875 20.62109375 C-18.69001655 18.45754524 -16.16451882 16.29028509 -13.640625 14.12109375 C-11.55628326 12.3302986 -9.46489302 10.55117507 -7.359375 8.78515625 C-6.66328125 8.19605469 -5.9671875 7.60695313 -5.25 7 C-4.65703125 6.505 -4.0640625 6.01 -3.453125 5.5 C-1.81441695 3.8084304 -0.94345178 2.14589032 0 0 Z " fill="#C7F5F8" transform="translate(49,40)"/>
<path d="M0 0 C8.58 0 17.16 0 26 0 C26 3.3 26 6.6 26 10 C24.46988281 10.03738281 22.93976563 10.07476562 21.36328125 10.11328125 C19.34633 10.17894943 17.32940401 10.24539648 15.3125 10.3125 C13.80139648 10.34633789 13.80139648 10.34633789 12.25976562 10.38085938 C5.09096742 10.524164 5.09096742 10.524164 -1 14 C-1.88658466 16.59122743 -1.88658466 16.59122743 -2 19 C-2.33 19 -2.66 19 -3 19 C-3.4877327 13.63494033 -3.4877327 13.63494033 -1.33691406 10.83496094 C1.52403802 8.58852176 3.03679106 8.46730232 6.640625 8.390625 C7.71054688 8.35839844 8.78046875 8.32617188 9.8828125 8.29296875 C10.99398437 8.27878906 12.10515625 8.26460937 13.25 8.25 C14.37664062 8.22035156 15.50328125 8.19070312 16.6640625 8.16015625 C19.44278021 8.08951088 22.22066148 8.03678723 25 8 C24.34 6.02 23.68 4.04 23 2 C11.615 1.505 11.615 1.505 0 1 C0 0.67 0 0.34 0 0 Z " fill="#158FA3" transform="translate(65,24)"/>
<path d="M0 0 C6.93 0 13.86 0 21 0 C21 3.96 21 7.92 21 12 C18.67001953 12.05607422 18.67001953 12.05607422 16.29296875 12.11328125 C14.257788 12.17893224 12.22263283 12.24537988 10.1875 12.3125 C9.16333984 12.33505859 8.13917969 12.35761719 7.08398438 12.38085938 C6.10107422 12.41630859 5.11816406 12.45175781 4.10546875 12.48828125 C3.19949951 12.51446533 2.29353027 12.54064941 1.36010742 12.56762695 C-1.42150256 13.07721951 -2.2808098 13.80193791 -4 16 C-5.17574711 18.09989652 -5.17574711 18.09989652 -6 20 C-5.125 13.25 -5.125 13.25 -4 11 C3.59 11 11.18 11 19 11 C19 8.03 19 5.06 19 2 C12.73 1.67 6.46 1.34 0 1 C0 0.67 0 0.34 0 0 Z " fill="#2A92A3" transform="translate(68,46)"/>
<path d="M0 0 C2.43375 -0.04125 4.8675 -0.0825 7.375 -0.125 C8.13989746 -0.14320801 8.90479492 -0.16141602 9.69287109 -0.18017578 C11.46287275 -0.1948117 13.23272455 -0.09928514 15 0 C15.66 0.66 16.32 1.32 17 2 C12.05 1.67 7.1 1.34 2 1 C2 5.95 2 10.9 2 16 C6.95 15.67 11.9 15.34 17 15 C16.67 15.66 16.34 16.32 16 17 C10.83608171 18.7213061 5.40708764 18.05353552 0 18 C0 12.06 0 6.12 0 0 Z " fill="#B9F0F4" transform="translate(107,35)"/>
<path d="M0 0 C2.625 2.1875 2.625 2.1875 4 4 C2.02 4 0.04 4 -2 4 C-2.33 3.01 -2.66 2.02 -3 1 C-5.97 0.67 -8.94 0.34 -12 0 C-12 -0.66 -12 -1.32 -12 -2 C-13.08539063 -1.72285156 -14.17078125 -1.44570313 -15.2890625 -1.16015625 C-16.73434281 -0.7941437 -18.17965712 -0.4282654 -19.625 -0.0625 C-20.33785156 0.11990234 -21.05070313 0.30230469 -21.78515625 0.49023438 C-25.83969313 1.51316799 -29.85947059 2.37957367 -34 3 C-25.71367703 -5.96429484 -10.30899853 -4.72907994 0 0 Z " fill="#2494A5" transform="translate(188,25)"/>
<path d="M0 0 C4.50411588 1.14810797 8.08992462 2.50189628 12 5 C14.88265149 5.96088383 16.67662271 6.11670941 19.66796875 6.09765625 C20.56064453 6.09443359 21.45332031 6.09121094 22.37304688 6.08789062 C23.30181641 6.07951172 24.23058594 6.07113281 25.1875 6.0625 C26.12787109 6.05798828 27.06824219 6.05347656 28.03710938 6.04882812 C30.35813712 6.03704626 32.67903644 6.02059558 35 6 C28.93197933 10.04534711 22.09462948 9.58714175 15 9 C8.70660455 7.43937364 4.14729712 4.97675654 0 0 Z " fill="#2993A2" transform="translate(150,74)"/>
<path d="M0 0 C0 3 0 3 -2.66796875 5.77734375 C-3.83360286 6.8390699 -5.00716908 7.8921368 -6.1875 8.9375 C-7.0547168 9.72543945 -7.0547168 9.72543945 -7.93945312 10.52929688 C-10.52343087 12.86217622 -13.12635581 15.09946426 -15.86328125 17.25390625 C-18.08290266 18.82447101 -18.08290266 18.82447101 -19 21 C-19 22.093125 -19 23.18625 -19 24.3125 C-19 27.42707668 -19.27130758 29.99414378 -20 33 C-22.41834693 30.58165307 -22.40211575 29.71720073 -22.5625 26.375 C-22.44762667 21.0525356 -20.7529615 18.5689957 -17.0625 14.87109375 C-16.381875 14.25363281 -15.70125 13.63617188 -15 13 C-14.34 12.39285156 -13.68 11.78570312 -13 11.16015625 C-11.02975924 9.40156245 -9.0241885 7.69604857 -7 6 C-5.66573026 4.85525721 -4.33233698 3.70949171 -3 2.5625 C-2.01 1.716875 -1.02 0.87125 0 0 Z " fill="#2E93A3" transform="translate(27,43)"/>
<path d="M0 0 C0.66 0.33 1.32 0.66 2 1 C-0.31 3.64 -2.62 6.28 -5 9 C4.9 9 14.8 9 25 9 C25 9.33 25 9.66 25 10 C1.21122564 11.19388403 1.21122564 11.19388403 -9 11 C-9 10.34 -9 9.68 -9 9 C-8.34 9 -7.68 9 -7 9 C-6.95875 8.443125 -6.9175 7.88625 -6.875 7.3125 C-5.53069626 3.75969726 -2.99025811 2.29041047 0 0 Z " fill="#319CB1" transform="translate(25,61)"/>
<path d="M0 0 C0.33 0.66 0.66 1.32 1 2 C0.67 2.99 0.34 3.98 0 5 C0 7.97 0 10.94 0 14 C-9.9 14 -19.8 14 -30 14 C-28 10 -28 10 -25 8 C-25.33 9.32 -25.66 10.64 -26 12 C-18.41 12.33 -10.82 12.66 -3 13 C-3 10.36 -3 7.72 -3 5 C-1.5 2 -1.5 2 0 0 Z " fill="#DAFDFE" transform="translate(50,56)"/>
<path d="M0 0 C5.03534236 -0.0990984 10.07011342 -0.1715758 15.10620117 -0.21972656 C16.81821586 -0.23980505 18.53016228 -0.26707392 20.24194336 -0.30175781 C22.70704008 -0.35044401 25.1712279 -0.37300573 27.63671875 -0.390625 C28.39836838 -0.41127014 29.16001801 -0.43191528 29.94474792 -0.45318604 C33.70175398 -0.45476173 35.81076098 -0.11891443 39.02270508 1.89941406 C41 4 41 4 41 6 C40.01 6 39.02 6 38 6 C38 5.01 38 4.02 38 3 C34.43072615 1.81024205 31.20053028 1.87521845 27.48828125 1.90234375 C26.39594429 1.90446617 26.39594429 1.90446617 25.28153992 1.90663147 C22.95848461 1.91222341 20.63552612 1.92477438 18.3125 1.9375 C16.73632952 1.94251604 15.16015752 1.94707877 13.58398438 1.95117188 C9.72261902 1.9621902 5.86132592 1.97944926 2 2 C1.67 4.31 1.34 6.62 1 9 C0.67 9 0.34 9 0 9 C0 6.03 0 3.06 0 0 Z " fill="#138FA5" transform="translate(7,24)"/>
<path d="M0 0 C1.28777344 0.24363281 1.28777344 0.24363281 2.6015625 0.4921875 C10.68058993 1.69939849 18.95163148 1.26248918 27 0 C27 0.66 27 1.32 27 2 C21.98770405 3.62543447 17.69825717 4.2962375 12.375 4.3125 C11.10398438 4.32925781 9.83296875 4.34601563 8.5234375 4.36328125 C4.83762089 3.98325803 2.92994928 3.21710721 0 1 C0 0.67 0 0.34 0 0 Z " fill="#D6F9FB" transform="translate(159,81)"/>
<path d="M0 0 C1.47265625 1.078125 1.47265625 1.078125 3 3 C3.83642875 8.99817372 4.18184862 15.78030613 1.25 21.25 C-0.79161305 23.74530484 -1.96444498 25.02428589 -5 26 C-5 25.01 -5 24.02 -5 23 C-3.68 22.67 -2.36 22.34 -1 22 C-1.04125 21.21625 -1.0825 20.4325 -1.125 19.625 C-1 17 -1 17 1 15 C1.30593391 9.90110158 0.70682076 5.03609791 0 0 Z " fill="#CBF8F9" transform="translate(186,42)"/>
<path d="M0 0 C5.19611221 -0.04947953 10.39208691 -0.08575727 15.58837891 -0.10986328 C17.35565582 -0.11991384 19.12291613 -0.13355642 20.89013672 -0.15087891 C23.43200785 -0.17516885 25.97365889 -0.18649255 28.515625 -0.1953125 C29.69865204 -0.21079636 29.69865204 -0.21079636 30.90557861 -0.22659302 C34.74889664 -0.22737709 37.74651174 -0.18664676 41 2 C40.67 2.99 40.34 3.98 40 5 C39.1754834 4.5155542 38.3509668 4.0311084 37.50146484 3.53198242 C33.55624452 1.80584537 30.20328924 1.52617505 25.9765625 1.48828125 C25.23038666 1.47033005 24.48421082 1.45237885 23.71542358 1.43388367 C21.3520051 1.38006895 18.98878514 1.34597933 16.625 1.3125 C15.01429546 1.27930128 13.40361702 1.24480928 11.79296875 1.20898438 C7.86212313 1.12435982 3.93133341 1.05741257 0 1 C0 0.67 0 0.34 0 0 Z " fill="#CFFBFC" transform="translate(6,22)"/>
<path d="M0 0 C0.66 0 1.32 0 2 0 C2.33 0.66 2.66 1.32 3 2 C4.65 2 6.3 2 8 2 C8.12375 3.2375 8.2475 4.475 8.375 5.75 C8.75746305 8.8762197 9.30549523 11.28879237 11 14 C9.234375 13.875 9.234375 13.875 7 13 C5.078125 10.3125 5.078125 10.3125 3.25 7 C2.32960938 5.3603125 2.32960938 5.3603125 1.390625 3.6875 C0 1 0 1 0 0 Z " fill="#1895A6" transform="translate(118,64)"/>
<path d="M0 0 C1.32 0 2.64 0 4 0 C4 0.66 4 1.32 4 2 C4.598125 2.020625 5.19625 2.04125 5.8125 2.0625 C9.25783279 3.53907119 9.57378163 6.67215714 11 10 C13.06890419 11.04289755 13.06890419 11.04289755 15 11 C14.01 13.31 13.02 15.62 12 18 C10.99901302 16.0287581 10.02670802 14.06106424 9.140625 12.03515625 C6.8589655 6.98148059 4.42409759 4.31807319 0 1 C0 0.67 0 0.34 0 0 Z " fill="#D2FBFD" transform="translate(131,25)"/>
<path d="M0 0 C3.63 0 7.26 0 11 0 C11.33 1.32 11.66 2.64 12 4 C11.01 3.67 10.02 3.34 9 3 C9 2.34 9 1.68 9 1 C7.8553125 1.495 7.8553125 1.495 6.6875 2 C4 3 4 3 1 3 C1 7.95 1 12.9 1 18 C0.67 18 0.34 18 0 18 C0 12.06 0 6.12 0 0 Z " fill="#E4FEFE" transform="translate(108,65)"/>
<path d="M0 0 C9.57 0 19.14 0 29 0 C28.34 1.32 27.68 2.64 27 4 C26.67 3.01 26.34 2.02 26 1 C17.42 1 8.84 1 0 1 C0 0.67 0 0.34 0 0 Z " fill="#CCFBFC" transform="translate(6,35)"/>
<path d="M0 0 C0.33 0 0.66 0 1 0 C1.03738281 0.65226562 1.07476562 1.30453125 1.11328125 1.9765625 C1.51493762 7.31622957 2.16761609 11.3204092 5 16 C2.53199953 14.84826645 0.95216435 13.95216435 -1 12 C-1.23046875 9.6875 -1.23046875 9.6875 -1.1875 7 C-1.18105469 6.113125 -1.17460938 5.22625 -1.16796875 4.3125 C-1 2 -1 2 0 0 Z " fill="#D4F8FA" transform="translate(4,64)"/>
<path d="M0 0 C0.33 0.66 0.66 1.32 1 2 C0.54625 2.86625 0.0925 3.7325 -0.375 4.625 C-2.29348672 8.60954934 -2.62261923 11.6223831 -3 16 C-3.66 16 -4.32 16 -5 16 C-5.29209024 10.35292212 -5.0637112 6.94907193 -2 2 C-1.34 1.34 -0.68 0.68 0 0 Z " fill="#3C9DAA" transform="translate(54,53)"/>
<path d="M0 0 C3.27275026 3.27275026 5.54738045 6.14588356 8 10 C4.38144425 9.37611108 3.8290723 8.8290723 1 6 C1 8.97 1 11.94 1 15 C0.67 15 0.34 15 0 15 C0 10.05 0 5.1 0 0 Z " fill="#BDECF1" transform="translate(144,67)"/>
<path d="M0 0 C0.33 0.66 0.66 1.32 1 2 C-4.57468542 5.61601216 -9.60567654 5.30720059 -16 5 C-16 4.34 -16 3.68 -16 3 C-14.51886719 2.80083984 -14.51886719 2.80083984 -13.0078125 2.59765625 C-11.72648438 2.42105469 -10.44515625 2.24445313 -9.125 2.0625 C-7.21074219 1.80146484 -7.21074219 1.80146484 -5.2578125 1.53515625 C-2.12440546 1.18566773 -2.12440546 1.18566773 0 0 Z " fill="#1690A1" transform="translate(184,68)"/>
<path d="M0 0 C3.74281699 2.38179263 6.97727468 4.74475735 10 8 C8.68 8 7.36 8 6 8 C6 7.34 6 6.68 6 6 C3.03 5.505 3.03 5.505 0 5 C-0.5625 3.0625 -0.5625 3.0625 -1 1 C-0.67 0.67 -0.34 0.34 0 0 Z " fill="#1593AA" transform="translate(155,62)"/>
<path d="M0 0 C4.6318408 1.46268657 4.6318408 1.46268657 6.15625 3.6875 C7.23609701 6.6470807 7.19331406 9.10755345 7.125 12.25 C7.10695312 13.32765625 7.08890625 14.4053125 7.0703125 15.515625 C7.04710937 16.33546875 7.02390625 17.1553125 7 18 C6.67 18 6.34 18 6 18 C5.85304687 16.93072266 5.85304687 16.93072266 5.703125 15.83984375 C4.74166439 9.68152277 3.46175893 5.19263839 0 0 Z " fill="#1E91A1" transform="translate(184,38)"/>
<path d="M0 0 C5.90695078 2.00836326 9.5980236 4.6915469 13 10 C13.6640625 12.22265625 13.6640625 12.22265625 14 14 C12.62437146 12.71034824 11.29233607 11.37310707 10 10 C10 9.34 10 8.68 10 8 C9.01 7.67 8.02 7.34 7 7 C6.67 6.34 6.34 5.68 6 5 C5.01 4.67 4.02 4.34 3 4 C3 3.34 3 2.68 3 2 C2.01 2 1.02 2 0 2 C0 1.34 0 0.68 0 0 Z " fill="#2E93A4" transform="translate(127,24)"/>
<path d="M0 0 C0 0.66 0 1.32 0 2 C0.66 2 1.32 2 2 2 C1.6875 3.875 1.6875 3.875 1 6 C0.01 6.66 -0.98 7.32 -2 8 C-2.433125 6.576875 -2.433125 6.576875 -2.875 5.125 C-3.76825109 1.94788422 -3.76825109 1.94788422 -6 0 C-2.25 -1.125 -2.25 -1.125 0 0 Z " fill="#303030" transform="translate(332,58)"/>
<path d="M0 0 C4.45588832 1.48529611 6.76642609 5.0642601 9 9 C9.64453125 11.2265625 9.64453125 11.2265625 10 13 C9.34 13 8.68 13 8 13 C7.67 11.68 7.34 10.36 7 9 C6.34 9 5.68 9 5 9 C5 7.68 5 6.36 5 5 C3.68 4.67 2.36 4.34 1 4 C0.67 2.68 0.34 1.36 0 0 Z " fill="#2D97A6" transform="translate(192,29)"/>
<path d="M0 0 C0.33 1.32 0.66 2.64 1 4 C-4.625 9 -4.625 9 -8 9 C-8 9.66 -8 10.32 -8 11 C-9.32 10.67 -10.64 10.34 -12 10 C-11.38511719 9.61328125 -10.77023438 9.2265625 -10.13671875 8.828125 C-9.32847656 8.30734375 -8.52023438 7.7865625 -7.6875 7.25 C-6.88699219 6.73953125 -6.08648437 6.2290625 -5.26171875 5.703125 C-2.99631139 3.99722239 -1.57315833 2.34191855 0 0 Z " fill="#D5F9FB" transform="translate(198,70)"/>
<path d="M0 0 C0.99 0.33 1.98 0.66 3 1 C3 2.32 3 3.64 3 5 C-0.34939881 7.02558881 -2.86962551 7.21738987 -6.75 7.125 C-7.73484375 7.10695313 -8.7196875 7.08890625 -9.734375 7.0703125 C-10.85585937 7.03550781 -10.85585937 7.03550781 -12 7 C-12 6.67 -12 6.34 -12 6 C-8.7 5.67 -5.4 5.34 -2 5 C-1.34 3.35 -0.68 1.7 0 0 Z " fill="#3D3D3D" transform="translate(244,64)"/>
<path d="M0 0 C0 0.66 0 1.32 0 2 C-1.64453125 3.40234375 -1.64453125 3.40234375 -3.8125 4.9375 C-6.43530583 6.80547282 -8.78449355 8.65869193 -11 11 C-10.125 6.25 -10.125 6.25 -9 4 C-8.01 4 -7.02 4 -6 4 C-5.67 3.01 -5.34 2.02 -5 1 C-2 0 -2 0 0 0 Z " fill="#D8F8FB" transform="translate(157,24)"/>
<path d="M0 0 C2 2 2 2 2 5 C3.32 5.33 4.64 5.66 6 6 C6.33 8.31 6.66 10.62 7 13 C3.61939099 9.88628118 1.29079964 7.45912603 0 3 C0 2.01 0 1.02 0 0 Z " fill="#2495A8" transform="translate(143,61)"/>
<path d="M0 0 C0.66 0 1.32 0 2 0 C1.82374165 2.37948772 1.30280227 3.70225849 -0.40234375 5.37890625 C-1.90649092 6.62115486 -3.45129851 7.81376056 -5 9 C-5.33 8.34 -5.66 7.68 -6 7 C-5.04882866 5.8274869 -4.08882991 4.66212985 -3.125 3.5 C-2.59132812 2.8503125 -2.05765625 2.200625 -1.5078125 1.53125 C-0.76144531 0.77328125 -0.76144531 0.77328125 0 0 Z " fill="#D7FAFC" transform="translate(163,36)"/>
<path d="M0 0 C2.29013653 3.4352048 2.17842973 4.985331 2 9 C-0.31 9 -2.62 9 -5 9 C-4.360625 8.443125 -3.72125 7.88625 -3.0625 7.3125 C-0.80319013 4.77933439 -0.36850953 3.31658576 0 0 Z " fill="#D5F7F9" transform="translate(142,61)"/>
<path d="M0 0 C0.33 0 0.66 0 1 0 C0.38461538 6.52307692 0.38461538 6.52307692 -1.5625 8.9375 C-2.036875 9.288125 -2.51125 9.63875 -3 10 C-3.99 9.67 -4.98 9.34 -6 9 C-5.34 8.01 -4.68 7.02 -4 6 C-3.01 6 -2.02 6 -1 6 C-1.020625 5.195625 -1.04125 4.39125 -1.0625 3.5625 C-1 1 -1 1 0 0 Z " fill="#DEFBFD" transform="translate(186,58)"/>
<path d="M0 0 C3 3.75 3 3.75 3 6 C-0.46153846 9 -0.46153846 9 -3 9 C-2.01 6.03 -1.02 3.06 0 0 Z " fill="#D0EFF0" transform="translate(202,61)"/>
<path d="M0 0 C0.66 0.33 1.32 0.66 2 1 C1.34 2.98 0.68 4.96 0 7 C0.66 7 1.32 7 2 7 C2.66 8.32 3.32 9.64 4 11 C1.5625 10.375 1.5625 10.375 -1 9 C-1.9375 6.0625 -1.9375 6.0625 -2 3 C-1.34 2.01 -0.68 1.02 0 0 Z " fill="#BCF0F5" transform="translate(65,59)"/>
<path d="M0 0 C3 1 3 1 4 3 C4.99 3.33 5.98 3.66 7 4 C6.34 5.98 5.68 7.96 5 10 C2.82145293 6.7321794 1.50239966 3.61941735 0 0 Z " fill="#CEEFF1" transform="translate(198,34)"/>
<path d="M0 0 C0.66 0.33 1.32 0.66 2 1 C1.0479279 2.00596297 0.08812654 3.00461563 -0.875 4 C-1.40867187 4.556875 -1.94234375 5.11375 -2.4921875 5.6875 C-4 7 -4 7 -6 7 C-6 6.01 -6 5.02 -6 4 C-5.34 4 -4.68 4 -4 4 C-3.67 3.01 -3.34 2.02 -3 1 C-2.01 0.67 -1.02 0.34 0 0 Z " fill="#D6F7FA" transform="translate(27,41)"/>
<path d="M0 0 C0.66 0.33 1.32 0.66 2 1 C0.76302083 2.46484375 -0.47395833 3.9296875 -1.7109375 5.39453125 C-2.89201099 6.8655046 -3.95358529 8.43037794 -5 10 C-5.66 10 -6.32 10 -7 10 C-5.6062718 5.56541027 -3.39417765 3.12621626 0 0 Z " fill="#2F95A2" transform="translate(152,28)"/>
<path d="M0 0 C4.16216275 -0.32644414 6.36313462 -0.40650982 9.9375 1.875 C12 4 12 4 12 6 C11.01 6 10.02 6 9 6 C9 5.01 9 4.02 9 3 C4.545 2.01 4.545 2.01 0 1 C0 0.67 0 0.34 0 0 Z " fill="#2190A0" transform="translate(36,24)"/>
<path d="M0 0 C1.65 0.33 3.3 0.66 5 1 C3.71034824 2.37562854 2.37310707 3.70766393 1 5 C0.34 5 -0.32 5 -1 5 C-0.67 3.35 -0.34 1.7 0 0 Z " fill="#2B2B2B" transform="translate(333,76)"/>
<path d="M0 0 C0.33 0 0.66 0 1 0 C1.84098656 4.01804691 2.05404945 7.01803543 1 11 C-1 9 -1 9 -1.23046875 7.08984375 C-1.11111111 1.11111111 -1.11111111 1.11111111 0 0 Z " fill="#218FA4" transform="translate(6,65)"/>
<path d="M0 0 C1.48828125 1.11328125 1.48828125 1.11328125 3 3 C3.29296875 5.91796875 3.29296875 5.91796875 3.1875 9.1875 C3.16042969 10.27417969 3.13335937 11.36085938 3.10546875 12.48046875 C3.07066406 13.31191406 3.03585938 14.14335938 3 15 C2.67 15 2.34 15 2 15 C1.93941406 14.41992188 1.87882813 13.83984375 1.81640625 13.2421875 C1.33983439 8.79907137 0.78991334 4.40094577 0 0 Z " fill="#1190A5" transform="translate(138,35)"/>
<path d="M0 0 C0.99 0.33 1.98 0.66 3 1 C1.02 3.31 -0.96 5.62 -3 8 C-3.33 6.68 -3.66 5.36 -4 4 C-2.68 3.34 -1.36 2.68 0 2 C0 1.34 0 0.68 0 0 Z " fill="#D9FAFB" transform="translate(9,56)"/>
<path d="M0 0 C1.98 0.99 1.98 0.99 4 2 C2.25 5.875 2.25 5.875 0 7 C0 4.69 0 2.38 0 0 Z " fill="#D3FBFE" transform="translate(51,49)"/>
<path d="M0 0 C0.99 0.33 1.98 0.66 3 1 C2.34 3.64 1.68 6.28 1 9 C0.67 9 0.34 9 0 9 C0 6.03 0 3.06 0 0 Z " fill="#EAFEFE" transform="translate(145,73)"/>
</svg>
